<svg viewBox="0 0 500 500" xmlns="http://www.w3.org/2000/svg" xmlns:xlink="http://www.w3.org/1999/xlink" width="100%" id="blobSvg">
  <defs>
    <linearGradient id="gradient" x1="0%" y1="0%" x2="0%" y2="100%">
      <stop offset="0%" style="stop-color: rgb(76, 161, 175);"></stop>
      <stop offset="100%" style="stop-color: rgb(196, 224, 229);"></stop>
    </linearGradient>
  </defs>
  <path id="blob" d="M467.5,291.5Q449,333,430.5,372.5Q412,412,371,428Q330,444,290,456.5Q250,469,209.5,457Q169,445,136.5,420.5Q104,396,74.5,365.5Q45,335,41,292.5Q37,250,43.5,208.5Q50,167,74.5,133Q99,99,129.5,66Q160,33,205,18.5Q250,4,295,18Q340,32,381.5,54.5Q423,77,445.5,118.5Q468,160,477,205Q486,250,467.5,291.5Z" fill="url(#gradient)"></path>
</svg>